<svg viewBox="0 0 30 30" fill="currentColor" xmlns="http://www.w3.org/2000/svg">
    <path fill-rule="evenodd" clip-rule="evenodd" d="M7.995 0H21.99C27.09 0 30 2.88 30 7.995V22.005C30 27.09 27.105 30 22.005 30H7.995C2.88 30 0 27.09 0 22.005V7.995C0 2.88 2.88 0 7.995 0ZM16.23 16.245H20.49C21.18 16.23 21.735 15.675 21.735 14.985C21.735 14.295 21.18 13.74 20.49 13.74H16.23V9.51C16.23 8.82 15.675 8.265 14.985 8.265C14.295 8.265 13.74 8.82 13.74 9.51V13.74H9.495C9.165 13.74 8.85 13.875 8.61 14.1C8.385 14.34 8.25 14.6535 8.25 14.985C8.25 15.675 8.805 16.23 9.495 16.245H13.74V20.49C13.74 21.18 14.295 21.735 14.985 21.735C15.675 21.735 16.23 21.18 16.23 20.49V16.245Z"/>
</svg>
