<svg width="32" height="40" viewBox="0 0 32 40" fill="none" xmlns="http://www.w3.org/2000/svg">
<path d="M31 40H4.125C3.95924 40 3.80027 39.9342 3.68306 39.8169C3.56585 39.6997 3.5 39.5408 3.5 39.375V0.625C3.5 0.45924 3.56585 0.300269 3.68306 0.183058C3.80027 0.065848 3.95924 0 4.125 0L24.5387 0C24.7045 3.53984e-05 24.8634 0.0659067 24.9806 0.183125L31.4419 6.64437C31.5591 6.76156 31.625 6.9205 31.625 7.08625V39.375C31.625 39.5408 31.5592 39.6997 31.4419 39.8169C31.3247 39.9342 31.1658 40 31 40Z" fill="url(#paint0_linear)"/>
<path d="M0.375 20.5913L2.875 19.4869L4.62 22.165H0.375V20.5913Z" fill="url(#paint1_linear)"/>
<path d="M30.375 40H3.5C3.33424 40 3.17527 39.9342 3.05806 39.8169C2.94085 39.6997 2.875 39.5408 2.875 39.375V0.625C2.875 0.45924 2.94085 0.300269 3.05806 0.183058C3.17527 0.065848 3.33424 0 3.5 0L24.1725 0L31 6.8275V39.375C31 39.5408 30.9342 39.6997 30.8169 39.8169C30.6997 39.9342 30.5408 40 30.375 40Z" fill="url(#paint2_linear)"/>
<path d="M24.1724 0V6.2025C24.1724 6.36826 24.2382 6.52723 24.3554 6.64444C24.4726 6.76165 24.6316 6.8275 24.7974 6.8275H30.9999L27.9374 3.14L24.1724 0Z" fill="url(#paint3_linear)"/>
<path d="M24.7638 32.8125H1.48125C1.33595 32.8126 1.19206 32.7841 1.05781 32.7285C0.923556 32.6729 0.801571 32.5914 0.69883 32.4887C0.596089 32.386 0.514606 32.264 0.459041 32.1297C0.403476 31.9955 0.374918 31.8516 0.375 31.7063V21.6963H24.7638C25.0571 21.6965 25.3384 21.8131 25.5458 22.0205C25.7532 22.2279 25.8698 22.5092 25.87 22.8025V31.7063C25.87 31.9997 25.7534 32.2811 25.546 32.4885C25.3385 32.696 25.0571 32.8125 24.7638 32.8125Z" fill="url(#paint4_linear)"/>
<path d="M2.875 19.4869H1.48C1.33492 19.4868 1.19124 19.5153 1.05718 19.5708C0.923122 19.6262 0.801302 19.7076 0.698685 19.8101C0.596068 19.9127 0.514665 20.0345 0.459126 20.1685C0.403586 20.3025 0.375 20.4462 0.375 20.5913C0.374918 20.7364 0.403444 20.8801 0.458946 21.0142C0.514448 21.1483 0.595839 21.2702 0.698464 21.3728C0.801089 21.4754 0.922936 21.5568 1.05704 21.6123C1.19114 21.6678 1.33487 21.6963 1.48 21.6963H2.875V19.4869Z" fill="url(#paint5_linear)"/>
<path d="M5.375 29.397V25.1132C5.37492 25.0419 5.38889 24.9713 5.41612 24.9054C5.44334 24.8395 5.48329 24.7797 5.53367 24.7292C5.58406 24.6788 5.64389 24.6388 5.70975 24.6115C5.77561 24.5842 5.84621 24.5701 5.9175 24.5701C6.74691 24.5383 7.57753 24.5652 8.40313 24.6507C8.7372 24.7477 9.02756 24.957 9.22513 25.2432C9.42271 25.5295 9.51539 25.8753 9.4875 26.222C9.51215 26.5895 9.40521 26.9538 9.1858 27.2497C8.9664 27.5456 8.64885 27.7538 8.29 27.837C7.74031 27.9028 7.18655 27.9285 6.63313 27.9139C6.58688 27.9139 6.54253 27.9322 6.50982 27.9649C6.47712 27.9976 6.45875 28.042 6.45875 28.0882V29.397C6.45875 29.4681 6.44473 29.5386 6.4175 29.6043C6.39027 29.6701 6.35036 29.7298 6.30004 29.7801C6.24972 29.8305 6.18999 29.8704 6.12424 29.8976C6.0585 29.9248 5.98804 29.9389 5.91688 29.9389C5.77316 29.9389 5.63533 29.8818 5.53371 29.7801C5.43209 29.6785 5.375 29.5407 5.375 29.397ZM6.45875 25.6532V26.8276C6.45875 26.8739 6.47712 26.9182 6.50982 26.9509C6.54253 26.9836 6.58688 27.002 6.63313 27.002C7.06019 27.0314 7.48928 27.003 7.90875 26.9176C8.05709 26.8586 8.1821 26.7528 8.26475 26.6162C8.3474 26.4796 8.38317 26.3198 8.36661 26.161C8.35005 26.0022 8.28208 25.8532 8.17303 25.7366C8.06398 25.62 7.91982 25.5422 7.7625 25.5151C7.38697 25.4827 7.00997 25.4704 6.63313 25.4782C6.61023 25.4783 6.58757 25.4829 6.56644 25.4917C6.54532 25.5006 6.52614 25.5135 6.51001 25.5297C6.49387 25.546 6.4811 25.5653 6.47241 25.5865C6.46372 25.6076 6.45929 25.6303 6.45938 25.6532H6.45875Z" fill="white"/>
<path d="M10.375 25.1131C10.3749 25.0418 10.3889 24.9712 10.4161 24.9053C10.4433 24.8394 10.4833 24.7795 10.5337 24.7291C10.5841 24.6787 10.6439 24.6386 10.7097 24.6113C10.7756 24.584 10.8462 24.57 10.9175 24.57C11.7389 24.5209 12.5631 24.5553 13.3775 24.6725C13.6927 24.7744 13.9781 24.9521 14.2087 25.19C14.4392 25.4279 14.6079 25.7186 14.7 26.0369C14.8268 26.4475 14.8862 26.876 14.8756 27.3056C14.8838 27.6929 14.8281 28.0789 14.7106 28.4481C14.6245 28.7727 14.4562 29.0697 14.2221 29.3105C13.988 29.5514 13.6958 29.7279 13.3738 29.8231C12.5604 29.9382 11.738 29.9763 10.9175 29.9369C10.7739 29.9369 10.6362 29.88 10.5346 29.7786C10.4329 29.6773 10.3755 29.5398 10.375 29.3962V25.1131ZM11.4588 25.6531V28.86C11.4588 28.9062 11.4771 28.9506 11.5098 28.9833C11.5425 29.016 11.5869 29.0344 11.6331 29.0344C12.064 29.0581 12.4961 29.041 12.9238 28.9831C13.1041 28.9452 13.2691 28.8543 13.3975 28.7222C13.526 28.59 13.6122 28.4226 13.645 28.2412C13.728 27.9204 13.765 27.5894 13.755 27.2581C13.7666 26.9359 13.7295 26.6137 13.645 26.3025C13.5976 26.1094 13.4959 25.934 13.3519 25.797C13.2079 25.66 13.0277 25.5671 12.8325 25.5294C12.4333 25.4854 12.0315 25.4683 11.63 25.4781C11.5841 25.4788 11.5403 25.4975 11.5081 25.5303C11.4759 25.563 11.458 25.6072 11.4581 25.6531H11.4588Z" fill="white"/>
<path d="M15.8013 29.3968V25.1131C15.8013 24.9691 15.8585 24.8309 15.9603 24.7291C16.0622 24.6272 16.2003 24.57 16.3444 24.57H19.0275C19.148 24.57 19.2636 24.6178 19.3488 24.7031C19.434 24.7883 19.4819 24.9038 19.4819 25.0244C19.4819 25.084 19.4701 25.143 19.4473 25.1981C19.4245 25.2532 19.391 25.3033 19.3488 25.3454C19.3066 25.3876 19.2565 25.421 19.2014 25.4437C19.1462 25.4665 19.0872 25.4782 19.0275 25.4781H17.0625C17.0396 25.4781 17.0168 25.4826 16.9956 25.4914C16.9744 25.5002 16.9552 25.5131 16.939 25.5294C16.9228 25.5457 16.91 25.5649 16.9012 25.5862C16.8925 25.6074 16.8881 25.6301 16.8881 25.6531V26.5744C16.8881 26.5973 16.8925 26.62 16.9012 26.6413C16.91 26.6625 16.9228 26.6818 16.939 26.6981C16.9552 26.7143 16.9744 26.7272 16.9956 26.736C17.0168 26.7448 17.0396 26.7494 17.0625 26.7493H18.675C18.7954 26.7493 18.9109 26.7971 18.9961 26.8822C19.0813 26.9673 19.1292 27.0827 19.1294 27.2031C19.1292 27.3236 19.0813 27.439 18.9961 27.5242C18.911 27.6094 18.7955 27.6573 18.675 27.6575H17.0625C17.0396 27.6575 17.0169 27.662 16.9958 27.6707C16.9746 27.6795 16.9554 27.6924 16.9392 27.7085C16.923 27.7247 16.9102 27.744 16.9014 27.7651C16.8927 27.7863 16.8881 27.8089 16.8881 27.8318V29.3943C16.888 29.5381 16.8308 29.6759 16.729 29.7775C16.6273 29.8792 16.4894 29.9362 16.3456 29.9362C16.2745 29.9366 16.204 29.9229 16.1381 29.8959C16.0722 29.869 16.0123 29.8294 15.9617 29.7793C15.9112 29.7292 15.871 29.6696 15.8435 29.604C15.8159 29.5384 15.8016 29.468 15.8013 29.3968Z" fill="white"/>
<defs>
<linearGradient id="paint0_linear" x1="17.5625" y1="-19.9919" x2="17.5625" y2="-18.3881" gradientUnits="userSpaceOnUse">
<stop stop-color="#F3F7FF"/>
<stop offset="0.99" stop-color="#B5D1FF"/>
</linearGradient>
<linearGradient id="paint1_linear" x1="2.4975" y1="19.0306" x2="2.4975" y2="74.8119" gradientUnits="userSpaceOnUse">
<stop stop-color="#FF5252"/>
<stop offset="1" stop-color="#D50000"/>
</linearGradient>
<linearGradient id="paint2_linear" x1="945.062" y1="-217.16" x2="945.062" y2="6159.08" gradientUnits="userSpaceOnUse">
<stop stop-color="#F3F7FF"/>
<stop offset="0.99" stop-color="#B5D1FF"/>
</linearGradient>
<linearGradient id="paint3_linear" x1="369.221" y1="-159.961" x2="369.221" y2="-27.3032" gradientUnits="userSpaceOnUse">
<stop stop-color="#F3F7FF"/>
<stop offset="0.99" stop-color="#B5D1FF"/>
</linearGradient>
<linearGradient id="paint4_linear" x1="698.836" y1="383.174" x2="698.836" y2="966.044" gradientUnits="userSpaceOnUse">
<stop stop-color="#FF5252"/>
<stop offset="1" stop-color="#D50000"/>
</linearGradient>
<linearGradient id="paint5_linear" x1="22.875" y1="55.5462" x2="22.875" y2="115.948" gradientUnits="userSpaceOnUse">
<stop stop-color="#FF5252"/>
<stop offset="1" stop-color="#D50000"/>
</linearGradient>
</defs>
</svg>
