<svg viewBox="0 0 24 24" fill="currentColor" xmlns="http://www.w3.org/2000/svg">
<path fill-rule="evenodd" clip-rule="evenodd" d="M4.19526 8.35347C4.45561 8.09312 4.87772 8.09312 5.13807 8.35347L8 11.2154L10.8619 8.35347C11.1223 8.09312 11.5444 8.09312 11.8047 8.35347C12.0651 8.61381 12.0651 9.03592 11.8047 9.29627L8.4714 12.6296C8.21106 12.89 7.78894 12.89 7.5286 12.6296L4.19526 9.29627C3.93491 9.03592 3.93491 8.61381 4.19526 8.35347Z"/>
<path fill-rule="evenodd" clip-rule="evenodd" d="M4.19526 3.68745C4.45561 3.4271 4.87772 3.4271 5.13807 3.68745L8 6.54938L10.8619 3.68745C11.1223 3.4271 11.5444 3.4271 11.8047 3.68745C12.0651 3.9478 12.0651 4.36991 11.8047 4.63026L8.4714 7.96359C8.21106 8.22394 7.78894 8.22394 7.5286 7.96359L4.19526 4.63026C3.93491 4.36991 3.93491 3.9478 4.19526 3.68745Z"/>
</svg>
