<svg viewBox="0 0 24 24" fill="none" xmlns="http://www.w3.org/2000/svg">
<g clip-path="url(#clip0)">
<path d="M1.74249 9.07577C1.53649 9.07577 1.33049 8.99077 1.18149 8.82477C0.906487 8.51477 0.934487 8.04077 1.24349 7.76577C3.76149 5.52677 7.14949 4.55477 10.5675 5.19777C10.9745 5.27477 11.2425 5.66677 11.1665 6.07377C11.0895 6.48077 10.6985 6.74877 10.2905 6.67277C7.32549 6.11277 4.41449 6.95277 2.24149 8.88677C2.09849 9.01377 1.92049 9.07577 1.74249 9.07577Z" fill="#2196F3"/>
<path d="M0.731887 12.8882C0.585887 12.8882 0.437887 12.8452 0.306887 12.7562C-0.0341129 12.5212 -0.120113 12.0542 0.114887 11.7132C2.02389 8.94016 5.15389 7.28516 8.48889 7.28516C9.28789 7.28516 10.0519 7.37416 10.7629 7.55016C11.1649 7.65016 11.4099 8.05616 11.3119 8.45816C11.2119 8.86116 10.7989 9.10515 10.4039 9.00615C9.81089 8.85915 9.16589 8.78516 8.48889 8.78516C5.64789 8.78516 2.97889 10.1982 1.35089 12.5632C1.20589 12.7742 0.971887 12.8882 0.731887 12.8882Z" fill="#2196F3"/>
<path d="M6.60484 23.9997C6.41484 23.9997 6.22384 23.9277 6.07884 23.7837C5.94584 23.6537 2.83984 20.5537 2.83984 17.5437C2.83984 14.4027 5.37384 11.8477 8.48884 11.8477C11.6038 11.8477 14.1378 14.4027 14.1378 17.5437C14.1378 17.9577 13.8018 18.2937 13.3878 18.2937C12.9738 18.2937 12.6378 17.9577 12.6378 17.5437C12.6378 15.2307 10.7768 13.3477 8.48884 13.3477C6.20084 13.3477 4.33984 15.2297 4.33984 17.5437C4.33984 19.9247 7.10484 22.6897 7.13284 22.7167C7.42684 23.0087 7.42984 23.4827 7.13884 23.7777C6.99184 23.9247 6.79884 23.9997 6.60484 23.9997Z" fill="#2196F3"/>
<path d="M2.96322 22.8913C2.74522 22.8913 2.52922 22.7963 2.38122 22.6143C1.19922 21.1593 0.574219 19.4063 0.574219 17.5433C0.574219 15.3343 1.49622 13.2033 3.10222 11.6973C4.71222 10.1893 6.80522 9.44425 9.01222 9.58025C10.1362 9.65425 11.2042 9.97025 12.1892 10.5193C12.5512 10.7213 12.6802 11.1773 12.4792 11.5393C12.2772 11.9003 11.8212 12.0323 11.4582 11.8293C10.6692 11.3893 9.81322 11.1363 8.91322 11.0773C7.12422 10.9533 5.43122 11.5703 4.12722 12.7913C2.82222 14.0143 2.07322 15.7463 2.07322 17.5423C2.07322 19.0573 2.58222 20.4833 3.54422 21.6683C3.80622 21.9893 3.75622 22.4613 3.43522 22.7233C3.29722 22.8353 3.13022 22.8913 2.96322 22.8913Z" fill="#2196F3"/>
<path d="M10.3689 23.9996C8.89189 23.9996 5.46789 21.2586 5.13589 18.2076C5.01889 17.1066 5.35989 16.0216 6.06989 15.2286C6.69889 14.5256 7.55289 14.1356 8.47589 14.1296H8.49789C9.39089 14.1296 10.2299 14.4766 10.8659 15.1086C11.5169 15.7546 11.8759 16.6196 11.8759 17.5436V17.9226C11.8759 18.7686 12.5529 19.4576 13.3849 19.4576C13.7909 19.4576 14.1679 19.2996 14.4469 19.0136C14.7459 18.7216 14.9029 18.3386 14.9029 17.9236V17.7976C14.9029 16.6056 14.5959 15.4336 14.0159 14.4036C13.9299 14.2826 13.8799 14.1346 13.8799 13.9766C13.8799 13.5626 14.2109 13.2266 14.6249 13.2266H14.6349C14.9039 13.2266 15.1509 13.3696 15.2839 13.6016C16.0149 14.8716 16.4019 16.3216 16.4019 17.7966V17.9226C16.4019 18.7446 16.0849 19.5076 15.5069 20.0726C14.9559 20.6386 14.1969 20.9576 13.3829 20.9576C11.7239 20.9576 10.3739 19.5966 10.3739 17.9226V17.5436C10.3739 17.0226 10.1729 16.5356 9.80789 16.1726C9.45289 15.8196 8.98589 15.6546 8.48289 15.6306C7.84989 15.6336 7.42789 15.9586 7.18589 16.2296C6.76389 16.7006 6.55389 17.3806 6.62489 18.0486C6.88789 20.4446 9.75089 22.4996 10.3689 22.4996C10.7829 22.4996 11.1189 22.8356 11.1189 23.2496C11.1189 23.6636 10.7829 23.9996 10.3689 23.9996Z" fill="#2196F3"/>
<path d="M12.5874 22.8581C10.3694 22.8581 7.69141 20.3171 7.69141 17.1621C7.69141 16.7481 8.02741 16.4121 8.44141 16.4121C8.85541 16.4121 9.19141 16.7481 9.19141 17.1621C9.19141 19.4781 11.2464 21.3581 12.5874 21.3581C13.0014 21.3581 13.3374 21.6941 13.3374 22.1081C13.3374 22.5221 13.0014 22.8581 12.5874 22.8581Z" fill="#2196F3"/>
<path d="M23.492 1.8265L18.242 0.0405C18.085 -0.0135 17.916 -0.0135 17.759 0.0405L12.509 1.8265C12.205 1.9295 12 2.2145 12 2.5365V6.5545C12 11.4585 17.474 13.8425 17.707 13.9415C17.8 13.9805 17.9 14.0005 18 14.0005C18.1 14.0005 18.2 13.9805 18.293 13.9405C18.526 13.8415 24 11.4585 24 6.5545V2.5365C24 2.2145 23.795 1.9295 23.492 1.8265ZM21.35 5.2005L18.35 9.2005C18.22 9.3745 18.02 9.4835 17.803 9.4985C17.785 9.5005 17.768 9.5005 17.75 9.5005C17.552 9.5005 17.361 9.4215 17.22 9.2805L15.22 7.2805C14.927 6.9875 14.927 6.5125 15.22 6.2195C15.513 5.9265 15.988 5.9265 16.281 6.2195L17.67 7.6085L20.15 4.3005C20.399 3.9705 20.869 3.9035 21.2 4.1505C21.531 4.3985 21.599 4.8695 21.35 5.2005Z" fill="#4CAF50"/>
</g>
<defs>
<clipPath id="clip0">
<rect width="24" height="24" fill="white"/>
</clipPath>
</defs>
</svg>
