<svg width="32" height="31" viewBox="0 0 32 31" fill="none" xmlns="http://www.w3.org/2000/svg">
<path d="M21.2499 9.25L26.4999 4M29.4999 1L26.4999 4L29.4999 1ZM15.0849 15.415C15.8594 16.1792 16.4751 17.0891 16.8966 18.0922C17.318 19.0953 17.5368 20.1719 17.5405 21.2599C17.5441 22.348 17.3325 23.426 16.9178 24.432C16.5031 25.4379 15.8935 26.3518 15.1241 27.1212C14.3548 27.8906 13.4408 28.5002 12.4349 28.9149C11.4289 29.3296 10.3509 29.5412 9.26287 29.5375C8.17482 29.5339 7.09824 29.3151 6.09511 28.8936C5.09198 28.4722 4.18212 27.8565 3.41792 27.082C1.91512 25.526 1.08357 23.4421 1.10236 21.2789C1.12116 19.1158 1.9888 17.0466 3.51842 15.517C5.04804 13.9874 7.11724 13.1197 9.28036 13.1009C11.4435 13.0821 13.5275 13.9137 15.0834 15.4165L15.0849 15.415ZM15.0849 15.415L21.2499 9.25L15.0849 15.415ZM21.2499 9.25L25.7499 13.75L30.9999 8.5L26.4999 4L21.2499 9.25Z" stroke="#B5B5C3" stroke-width="2" stroke-linecap="round" stroke-linejoin="round"/>
</svg>
