<svg viewBox="0 0 30 30" fill="currentColor" xmlns="http://www.w3.org/2000/svg">
<path fill-rule="evenodd" clip-rule="evenodd" d="M13.0566 2.27847C12.0511 2.27847 11.1956 2.9772 10.9555 3.91897H19.0295C18.7894 2.9772 17.934 2.27847 16.9285 2.27847H13.0566ZM21.3107 3.91897H24.2821C27.4337 3.91897 30 6.51642 30 9.70628C30 9.70628 29.91 11.0567 29.8799 12.9371C29.8769 13.086 29.8049 13.2318 29.6863 13.3199C28.9645 13.8531 28.3042 14.2936 28.2441 14.324C25.7529 15.9949 22.8579 17.1705 19.7739 17.7554C19.5728 17.7948 19.3747 17.69 19.2726 17.5108C18.4082 16.0131 16.7934 15.0379 14.9925 15.0379C13.2036 15.0379 11.5738 16.0025 10.6838 17.5017C10.5803 17.6779 10.3852 17.7797 10.1856 17.7417C7.12706 17.1554 4.23212 15.9812 1.75588 14.3392L0.315158 13.3366C0.195098 13.2607 0.12006 13.124 0.12006 12.9721C0.0750375 12.1974 0 9.70628 0 9.70628C0 6.51642 2.56628 3.91897 5.71786 3.91897H8.67434C8.95948 1.71645 10.8054 0 13.0565 0H16.9285C19.1796 0 21.0255 1.71645 21.3107 3.91897ZM29.4898 16.2229L29.4297 16.2532C26.3982 18.2887 22.7514 19.6406 18.9245 20.2026C18.3842 20.2785 17.8439 19.9292 17.6939 19.3823C17.3637 18.1368 16.2982 17.3165 15.0225 17.3165H15.0075H14.9775C13.7019 17.3165 12.6363 18.1368 12.3062 19.3823C12.1561 19.9292 11.6158 20.2785 11.0756 20.2026C7.24865 19.6406 3.60182 18.2887 0.570309 16.2532C0.555301 16.238 0.405226 16.1469 0.285166 16.2229C0.150099 16.2988 0.150099 16.4811 0.150099 16.4811L0.255151 24.2279C0.255151 27.4177 2.80643 30 5.958 30H24.027C27.1786 30 29.7299 27.4177 29.7299 24.2279L29.85 16.4811C29.85 16.4811 29.85 16.2988 29.7149 16.2229C29.6398 16.1773 29.5498 16.1925 29.4898 16.2229ZM16.1181 22.5874C16.1181 23.2253 15.6228 23.7266 14.9925 23.7266C14.3772 23.7266 13.8669 23.2253 13.8669 22.5874V20.6279C13.8669 20.0051 14.3772 19.4887 14.9925 19.4887C15.6228 19.4887 16.1181 20.0051 16.1181 20.6279V22.5874Z" />
</svg>
