<svg viewBox="0 0 24 24" fill="currentColor" xmlns="http://www.w3.org/2000/svg">
<g clip-path="url(#clip0)">
<path fill-rule="evenodd" clip-rule="evenodd" d="M4.55666 2.48164C4.55545 2.47792 4.55427 2.47419 4.55313 2.47045L4.55666 2.48164ZM5.1075 4.17284L6.9992 9.97974C7.13331 10.3914 7.51708 10.67 7.95002 10.67H16.05C16.4833 10.67 16.8672 10.391 17.0011 9.97899L18.8868 4.17508L20.779 9.99899L22.0032 13.6238L12 20.8938L2.0356 13.652L5.1075 4.17284ZM22.1473 13.6983L22.0667 13.5873C22.0777 13.573 22.0912 13.5605 22.1066 13.5505L22.1935 13.6849L22.1473 13.6983ZM22.1705 13.7302L22.65 14.39L22.2135 13.7157L22.1705 13.7302ZM23.2203 15.2117L12.5879 22.9389C12.2374 23.1937 11.7627 23.1937 11.4121 22.9389L0.762122 15.1989L0.75756 15.1956C0.444814 14.9656 0.21283 14.6426 0.0947976 14.2727C-0.0228313 13.9042 -0.0212805 13.5079 0.0991719 13.1403L3.75896 1.85099C3.76461 1.83359 3.77074 1.81635 3.77734 1.79928C3.85706 1.59316 3.98379 1.40849 4.14742 1.25998C4.4107 1.02033 4.75394 0.887482 5.11002 0.887482C5.46692 0.887482 5.81092 1.02094 6.07444 1.26164C6.08139 1.26799 6.08824 1.27443 6.09501 1.28097C6.26558 1.44584 6.39209 1.65078 6.46304 1.87701L8.67598 8.66999H15.3235L17.539 1.85099C17.5446 1.83359 17.5507 1.81635 17.5573 1.79928C17.6371 1.59315 17.7638 1.40849 17.9274 1.25998C18.1907 1.02033 18.5339 0.887482 18.89 0.887482C19.2469 0.887482 19.5909 1.02094 19.8544 1.26164C19.8614 1.26799 19.8682 1.27443 19.875 1.28097C20.0457 1.44596 20.1723 1.65107 20.2432 1.87749L22.6793 9.37538L23.9474 13.13C23.9494 13.1359 23.9514 13.1419 23.9533 13.1478C23.9557 13.1553 23.9579 13.1628 23.9601 13.1704C24.0708 13.5504 24.056 13.956 23.9179 14.3269C23.7835 14.6878 23.5394 14.9971 23.2203 15.2117ZM17.9274 1.25998C17.928 1.25943 17.9286 1.25888 17.9293 1.25833L18.6 1.99999L17.9256 1.26164C17.9262 1.26109 17.9268 1.26054 17.9274 1.25998ZM19.2708 2.74165L19.2744 2.73834C19.2732 2.73945 19.272 2.74055 19.2708 2.74165Z"/>
</g>
<defs>
<clipPath id="clip0">
<rect width="24" height="24" />
</clipPath>
</defs>
</svg>
