<svg viewBox="0 0 36 36" fill="currentColor" xmlns="http://www.w3.org/2000/svg">
<g clip-path="url(#clip0)">
<path d="M16.4251 30.0376C16.6864 28.8525 16.9271 27.8305 17.1243 26.8003C17.1545 26.6431 17.0033 26.4401 16.9053 26.2735C16.6029 25.7432 16.2872 25.2175 15.9376 24.6309L17.994 22.784L20.0503 24.625C19.7213 25.1882 19.3717 25.7314 19.0826 26.3052C18.9553 26.5568 18.9073 26.8392 18.9447 27.1171C19.1068 28.0359 19.3281 28.944 19.5664 30.0376C19.7442 29.6926 19.841 29.5131 19.9293 29.3336C21.1695 26.7694 22.4074 24.2038 23.6428 21.6365C23.7782 21.3549 23.8847 21.1355 24.2947 21.2223C26.9063 21.7621 29.4694 22.445 31.7725 23.8037C32.5314 24.2463 33.2234 24.7889 33.8288 25.4158C34.2856 25.9075 34.62 26.4944 34.8061 27.1312C35.2658 28.7269 35.6045 30.3555 35.9964 31.9864C23.9988 37.3399 12 37.338 0 31.9806C0.405215 30.2969 0.77898 28.5979 1.23258 26.92C1.50958 25.8981 2.24985 25.16 3.09536 24.5253C5.01862 23.0903 7.26121 22.337 9.55944 21.7093C10.18 21.5415 10.8186 21.4371 11.4379 21.2669C11.9218 21.1344 12.1806 21.2306 12.4056 21.7116C13.5898 24.2355 14.8248 26.7417 16.0344 29.2538C16.1336 29.4661 16.2412 29.6727 16.4251 30.0376ZM23.3101 29.3218C23.3101 29.6996 23.3392 30.1866 23.3041 30.6688C23.217 31.8421 23.8206 32.6001 24.8487 33.0718C24.9861 33.13 25.1341 33.1607 25.2839 33.1621C25.4338 33.1635 25.5824 33.1356 25.7209 33.08C27.3369 32.2516 27.4578 31.4455 27.2026 29.2855L25.2806 28.5322L23.3101 29.3218ZM8.29299 23.3379C8.08736 23.3754 8.05107 23.3754 8.00874 23.3895C6.83906 23.8483 5.6597 24.2883 4.50091 24.7787C4.09206 24.9524 4.2106 25.3184 4.35576 25.6423C4.49365 25.9485 4.67509 26.2454 5.06579 26.101C6.22579 25.6704 7.37975 25.221 8.51072 24.7247C8.66797 24.6555 8.78893 24.2554 8.73933 24.0559C8.67523 23.772 8.42847 23.535 8.29299 23.332V23.3379ZM31.7797 25.0978C31.6588 24.9969 31.493 24.7728 31.2681 24.6778C30.2895 24.2648 29.2952 23.8858 28.3046 23.5045C27.6998 23.2698 27.5425 23.3578 27.2837 23.9222C27.0526 24.4279 27.2558 24.686 27.7324 24.8679C28.6892 25.2316 29.6375 25.6129 30.5907 25.9849C31.2717 26.2395 31.7446 25.9462 31.7797 25.0908V25.0978Z" />
<path d="M17.9394 10.1705C15.392 10.1388 12.8724 9.88888 10.4012 9.25881C10.0637 9.17315 9.82424 9.07342 9.75772 8.68505C9.69549 8.46401 9.56456 8.26695 9.38274 8.12068C8.89043 7.68655 8.36063 7.29935 7.86349 6.86639C7.1208 6.22693 7.21393 5.34107 8.08968 4.89521C11.1693 3.31356 14.2586 1.75069 17.3395 0.172571C17.5401 0.0595381 17.7679 0 17.9999 0C18.2319 0 18.4597 0.0595381 18.6603 0.172571C21.7424 1.74952 24.8293 3.31356 27.9101 4.89521C28.7883 5.34694 28.8778 6.22576 28.1375 6.86639C27.6864 7.25594 27.1928 7.60207 26.7598 8.00804C26.5276 8.22628 26.4042 8.5466 26.1961 8.79182C26.0473 8.96665 25.8611 9.17315 25.6518 9.22947C23.1298 9.90179 20.5485 10.1505 17.9394 10.1705Z"/>
<path d="M26.7546 12.8941C26.6869 13.232 26.5962 13.8105 26.445 14.3725C26.3821 14.6071 26.2369 14.9181 26.0434 14.9979C25.418 15.2536 25.3551 15.8192 25.1713 16.3085C24.4636 18.201 23.323 19.7745 21.5775 20.8844C18.5669 22.8075 14.7566 22.0754 12.4947 19.2031C11.6495 18.1138 10.9919 16.8989 10.5472 15.6056C10.4976 15.466 10.4263 15.2666 10.3223 15.2255C9.67391 14.9826 9.49005 14.4358 9.41506 13.8738C9.32434 13.2003 9.20943 12.4893 9.3449 11.8416C9.46586 11.2362 9.88196 10.6683 10.234 10.1333C10.3029 10.0277 10.6876 10.0558 10.9053 10.1086C13.5035 10.7305 16.1465 11.0473 18.8112 10.883C20.8518 10.7563 22.8815 10.4137 24.9112 10.1403C25.4023 10.0722 25.6539 10.023 26.0591 10.5439C26.5889 11.2291 26.6917 11.8921 26.7546 12.8941ZM25.77 14.2223C25.8027 13.3904 25.845 12.677 25.845 11.9648C25.8373 11.8852 25.8098 11.8087 25.7646 11.7418C25.7195 11.675 25.6583 11.6198 25.5861 11.5811C25.4712 11.5424 25.2402 11.6375 25.1531 11.7454C24.4358 12.623 23.4802 13.1358 22.4122 13.4807C20.3256 14.1542 18.1786 14.2211 16.0219 13.9829C14.0333 13.7623 12.1318 13.3012 10.7855 11.668C10.5605 11.3946 10.1723 11.5295 10.1638 11.9026C10.1469 12.6489 10.2073 13.3963 10.2376 14.2282C10.9633 13.9724 11.0952 14.3291 11.1956 14.7479C11.7072 16.8717 12.7681 18.6774 14.5825 19.9962C17.2436 21.9346 20.5373 21.4042 22.8077 18.7232C23.8014 17.5354 24.4941 16.1381 24.8301 14.6435C24.9318 14.2235 25.1338 14.0134 25.77 14.2223Z"/>
</g>
<defs>
<clipPath id="clip0">
<rect width="36" height="36" fill="white"/>
</clipPath>
</defs>
</svg>
