<svg viewBox="0 0 24 24" fill="currentColor" xmlns="http://www.w3.org/2000/svg">
<path d="M10.9994 19.6648V22.3352C10.9994 22.7023 11.2968 23 11.6636 23H22.3352C22.702 23 22.9994 22.7023 22.9994 22.3352V19.6648C22.9994 19.2977 22.702 19 22.3352 19H11.6636C11.2967 19 10.9994 19.2977 10.9994 19.6648ZM12.3278 20.3296H21.671V21.6704H12.3278V20.3296Z" />
<path d="M1.56775 20.4322C1.94625 20.8107 2.44346 21 2.94063 21C3.4378 21 3.93501 20.8108 4.31351 20.4322L12.1059 12.6399L13.0262 13.5602L12.566 14.0203C12.314 14.2724 12.314 14.681 12.566 14.9331L14.3991 16.7661C14.5252 16.8922 14.6903 16.9552 14.8555 16.9552C15.0206 16.9552 15.1858 16.8922 15.3118 16.7661L20.811 11.267C21.063 11.0149 21.063 10.6063 20.811 10.3543L18.9779 8.52118C18.7259 8.26914 18.3172 8.26914 18.0652 8.52118L17.605 8.98135L13.0186 4.39494L13.4788 3.93477C13.5998 3.81374 13.6678 3.6496 13.6678 3.47844C13.6678 3.30724 13.5998 3.14314 13.4788 3.0221L11.6457 1.18902C11.3937 0.936972 10.985 0.937015 10.733 1.18902L5.23388 6.68819C4.98183 6.94023 4.98183 7.34885 5.23388 7.6009L7.06692 9.43394C7.18791 9.55497 7.3521 9.623 7.52325 9.623C7.69441 9.623 7.8586 9.55497 7.97959 9.43394L8.43975 8.97377L9.36012 9.89415L1.56775 17.6865C0.81075 18.4435 0.81075 19.6752 1.56775 20.4322ZM12.1097 3.47844L7.52325 8.06485L6.60293 7.14452L11.1893 2.55811L12.1097 3.47844ZM13.9351 14.4767L18.5215 9.89032L19.4419 10.8106L14.8555 15.3971L13.9351 14.4767ZM13.939 12.6475L9.35251 8.06106L12.1059 5.30769L16.6923 9.8941L13.939 12.6475ZM2.48046 18.5992L10.2728 10.8069L11.1932 11.7272L3.40084 19.5195C3.14707 19.7732 2.73427 19.7732 2.48046 19.5195C2.22674 19.2658 2.22674 18.8529 2.48046 18.5992Z" />
</svg>
