<svg viewBox="0 0 14 14" fill="currentColor" xmlns="http://www.w3.org/2000/svg">
<path fill-rule="evenodd" clip-rule="evenodd" d="M9.74279 3.16977C9.40738 3.84058 9.18309 4.80812 9.18309 5.90869C9.18309 7.00926 9.40738 7.9768 9.74279 8.64761C10.0956 9.35331 10.4752 9.5677 10.7209 9.5677C10.9667 9.5677 11.3462 9.35331 11.6991 8.64761C12.0345 7.9768 12.2588 7.00926 12.2588 5.90869C12.2588 4.80812 12.0345 3.84058 11.6991 3.16977C11.3462 2.46407 10.9667 2.24967 10.7209 2.24967C10.4752 2.24967 10.0956 2.46407 9.74279 3.16977ZM2.41343 4.87358L8.57853 2.90794C8.22068 3.73757 8.01643 4.78694 8.01643 5.90869C8.01643 7.03043 8.22067 8.07981 8.57853 8.90943L2.41343 6.9438L2.40261 6.94046C2.19845 6.87971 2.02199 6.74942 1.90384 6.57219C1.78569 6.39496 1.73329 6.18197 1.75573 5.97015C1.76006 5.92929 1.76006 5.88808 1.75573 5.84722C1.73329 5.6354 1.78569 5.42241 1.90384 5.24518C2.02199 5.06795 2.19845 4.93766 2.40261 4.87691L2.41343 4.87358ZM2.06399 3.76046L10.128 1.18938C10.3129 1.12097 10.5106 1.08301 10.7209 1.08301C11.6467 1.08301 12.3277 1.8183 12.7426 2.64802C13.1749 3.51264 13.4254 4.66627 13.4254 5.90869C13.4254 7.1511 13.1749 8.30474 12.7426 9.16936C12.3277 9.99908 11.6467 10.7344 10.7209 10.7344C10.5106 10.7344 10.3128 10.6964 10.128 10.628L6.96797 9.62046L7.48287 11.1765C7.63759 11.5759 7.63038 12.0203 7.46225 12.4148C7.29148 12.8155 6.96867 13.1321 6.5647 13.295L6.56387 13.2953C6.15965 13.4576 5.70755 13.4528 5.30683 13.2821C4.90612 13.1113 4.58956 12.7885 4.42665 12.3845C4.42372 12.3773 4.42093 12.3699 4.4183 12.3626L2.9855 8.35072L2.06399 8.05691C1.60118 7.91771 1.20127 7.62157 0.933115 7.21934C0.675257 6.83256 0.554813 6.37103 0.589968 5.90869C0.554813 5.44634 0.675257 4.98482 0.933115 4.59803C1.20127 4.1958 1.60118 3.89966 2.06399 3.76046ZM5.59413 9.18244L4.38353 8.79646L5.51226 11.9569C5.56054 12.0701 5.65076 12.1604 5.76421 12.2088C5.88045 12.2583 6.01157 12.2598 6.12884 12.2128C6.24592 12.1654 6.33946 12.0736 6.38897 11.9574C6.43856 11.8411 6.43994 11.7098 6.39282 11.5924C6.38831 11.5812 6.38415 11.5698 6.38035 11.5583L5.59413 9.18244ZM11.0452 4.85334C11.3052 5.14346 11.4493 5.51913 11.4501 5.9087C11.4493 6.29826 11.3052 6.67394 11.0452 6.96406C10.7853 7.25417 10.4276 7.43843 10.0404 7.48169C9.91759 6.96644 9.8567 6.43838 9.85903 5.9087C9.8567 5.37902 9.91759 4.85095 10.0404 4.3357C10.4276 4.37896 10.7853 4.56322 11.0452 4.85334Z" />
</svg>
