<svg viewBox="0 0 80 80" fill="currentColor" xmlns="http://www.w3.org/2000/svg">
<path d="M40 5C20.6719 5 5 20.6719 5 40C5 59.3281 20.6719 75 40 75C59.3281 75 75 59.3281 75 40C75 20.6719 59.3281 5 40 5ZM37.5 23.125C37.5 22.7812 37.7812 22.5 38.125 22.5H41.875C42.2188 22.5 42.5 22.7812 42.5 23.125V44.375C42.5 44.7188 42.2188 45 41.875 45H38.125C37.7812 45 37.5 44.7188 37.5 44.375V23.125ZM40 57.5C39.0187 57.48 38.0843 57.0761 37.3974 56.375C36.7105 55.6739 36.3258 54.7315 36.3258 53.75C36.3258 52.7685 36.7105 51.8261 37.3974 51.125C38.0843 50.4239 39.0187 50.02 40 50C40.9813 50.02 41.9157 50.4239 42.6026 51.125C43.2895 51.8261 43.6742 52.7685 43.6742 53.75C43.6742 54.7315 43.2895 55.6739 42.6026 56.375C41.9157 57.0761 40.9813 57.48 40 57.5Z" />
</svg>
