<svg viewBox="0 0 106 100" fill="none" xmlns="http://www.w3.org/2000/svg">
<path d="M45.1033 99.4926C69.737 99.4926 89.7066 95.7613 89.7066 91.1584C89.7066 86.5556 69.737 82.8242 45.1033 82.8242C20.4696 82.8242 0.5 86.5556 0.5 91.1584C0.5 95.7613 20.4696 99.4926 45.1033 99.4926Z" fill="#F5F5F7" fill-opacity="0.8"/>
<path fill-rule="evenodd" clip-rule="evenodd" d="M80.7856 66.6744L65.0455 47.3027C64.2902 46.3908 63.1863 45.8389 62.0238 45.8389H28.1817C27.0198 45.8389 25.9159 46.3908 25.1606 47.3027L9.42114 66.6744V76.7948H80.7863V66.6744H80.7856Z" fill="#AEB8C2"/>
<path fill-rule="evenodd" clip-rule="evenodd" d="M22.7566 20.8359H67.4493C68.1473 20.8359 68.8166 21.1132 69.3102 21.6067C69.8037 22.1002 70.0809 22.7696 70.0809 23.4675V84.878C70.0809 85.576 69.8037 86.2453 69.3102 86.7388C68.8166 87.2324 68.1473 87.5096 67.4493 87.5096H22.7566C22.0586 87.5096 21.3893 87.2324 20.8958 86.7388C20.4023 86.2453 20.125 85.576 20.125 84.878V23.4675C20.125 22.7696 20.4023 22.1002 20.8958 21.6067C21.3893 21.1132 22.0586 20.8359 22.7566 20.8359V20.8359Z" fill="#F5F5F7"/>
<path fill-rule="evenodd" clip-rule="evenodd" d="M28.5777 27.3838H61.6283C61.9773 27.3838 62.312 27.5224 62.5587 27.7692C62.8055 28.0159 62.9441 28.3506 62.9441 28.6996V45.1187C62.9441 45.4676 62.8055 45.8023 62.5587 46.0491C62.312 46.2958 61.9773 46.4344 61.6283 46.4344H28.5777C28.2287 46.4344 27.894 46.2958 27.6472 46.0491C27.4005 45.8023 27.2619 45.4676 27.2619 45.1187V28.6996C27.2619 28.3506 27.4005 28.0159 27.6472 27.7692C27.894 27.5224 28.2287 27.3838 28.5777 27.3838ZM28.75 53.5772H61.4559C61.8506 53.5772 62.2291 53.734 62.5082 54.0131C62.7873 54.2922 62.9441 54.6707 62.9441 55.0654C62.9441 55.4601 62.7873 55.8386 62.5082 56.1177C62.2291 56.3967 61.8506 56.5535 61.4559 56.5535H28.75C28.3553 56.5535 27.9768 56.3967 27.6977 56.1177C27.4186 55.8386 27.2619 55.4601 27.2619 55.0654C27.2619 54.6707 27.4186 54.2922 27.6977 54.0131C27.9768 53.734 28.3553 53.5772 28.75 53.5772ZM28.75 61.316H61.4559C61.8507 61.316 62.2293 61.4729 62.5085 61.752C62.7876 62.0311 62.9444 62.4097 62.9444 62.8045C62.9444 63.1993 62.7876 63.5779 62.5085 63.857C62.2293 64.1362 61.8507 64.293 61.4559 64.293H28.75C28.3552 64.293 27.9766 64.1362 27.6975 63.857C27.4184 63.5779 27.2615 63.1993 27.2615 62.8045C27.2615 62.4097 27.4184 62.0311 27.6975 61.752C27.9766 61.4729 28.3552 61.316 28.75 61.316ZM80.6402 89.9358C80.1303 91.9562 78.3395 93.4621 76.2092 93.4621H13.9967C11.8665 93.4621 10.0757 91.9555 9.56646 89.9358C9.46934 89.5508 9.42029 89.1552 9.42041 88.7581V66.6746H26.7349C28.6474 66.6746 30.1888 68.2851 30.1888 70.2404V70.2667C30.1888 72.2213 31.748 73.7996 33.6605 73.7996H56.5454C58.4579 73.7996 60.0171 72.2068 60.0171 70.2515V70.2437C60.0171 68.2884 61.5586 66.6739 63.4711 66.6739H80.7855V88.7588C80.7855 89.1647 80.7349 89.5588 80.6402 89.9358Z" fill="#DCE0E6"/>
<path fill-rule="evenodd" clip-rule="evenodd" d="M82.8164 21.9026L78.323 23.6461C78.2075 23.6909 78.0818 23.7023 77.9602 23.6789C77.8385 23.6555 77.726 23.5982 77.6355 23.5137C77.545 23.4292 77.4802 23.3208 77.4485 23.2011C77.4168 23.0813 77.4196 22.9551 77.4565 22.8368L78.7309 18.7533C77.0276 16.8164 76.0276 14.4546 76.0276 11.9059C76.0276 5.33026 82.6842 0 90.896 0C99.1059 0 105.763 5.33026 105.763 11.9059C105.763 18.4816 99.1065 23.8118 90.8954 23.8118C87.9164 23.8118 85.1427 23.1105 82.8164 21.9026Z" fill="#DCE0E6"/>
<path d="M96.7528 14.0555C97.7879 14.0555 98.6271 13.2264 98.6271 12.2035C98.6271 11.1807 97.7879 10.3516 96.7528 10.3516C95.7176 10.3516 94.8784 11.1807 94.8784 12.2035C94.8784 13.2264 95.7176 14.0555 96.7528 14.0555Z" fill="white"/>
<path fill-rule="evenodd" clip-rule="evenodd" d="M86.9132 13.8238H83.1646L85.0711 10.583L86.9132 13.8238ZM89.256 10.583H92.5356V13.8238H89.256V10.583Z" fill="white"/>
</svg>
