<svg viewBox="0 0 34 24" fill="currentColor" xmlns="http://www.w3.org/2000/svg">
<path fill-rule="evenodd" clip-rule="evenodd" d="M23.2375 6.34928C23.2375 9.8738 20.4277 12.6999 16.9235 12.6999C13.4194 12.6999 10.6096 9.8738 10.6096 6.34928C10.6096 2.8234 13.4194 0 16.9235 0C20.4277 0 23.2375 2.8234 23.2375 6.34928ZM16.9234 24C11.7767 24 7.38203 23.1841 7.38203 19.9203C7.38203 16.6551 11.7485 15.8094 16.9234 15.8094C22.0702 15.8094 26.4649 16.6254 26.4649 19.8905C26.4649 23.1543 22.0984 24 16.9234 24ZM25.9357 6.46384C25.9357 8.26055 25.3998 9.93433 24.4597 11.3258C24.363 11.469 24.4489 11.6621 24.6195 11.6919C24.8545 11.7324 25.0976 11.7554 25.3448 11.7621C27.8094 11.827 30.0215 10.2315 30.6326 7.82961C31.5378 4.26185 28.8798 1.05885 25.4952 1.05885C25.1272 1.05885 24.7753 1.09802 24.4328 1.16827C24.3858 1.17908 24.3361 1.20069 24.3092 1.24257C24.277 1.2939 24.3012 1.3628 24.3334 1.40738C25.3501 2.8407 25.9357 4.58878 25.9357 6.46384ZM30.0174 14.2689C31.6734 14.5944 32.7627 15.2591 33.214 16.225C33.5954 17.018 33.5954 17.9379 33.214 18.7296C32.5236 20.2277 30.2981 20.7086 29.4331 20.8329C29.2545 20.8599 29.1108 20.7046 29.1296 20.5249C29.5715 16.3736 26.0566 14.4053 25.1473 13.9527C25.1084 13.9325 25.1003 13.9014 25.1043 13.8825C25.107 13.869 25.1231 13.8474 25.1527 13.8433C27.1203 13.8068 29.2357 14.077 30.0174 14.2689ZM8.6557 11.762C8.90283 11.7552 9.14459 11.7336 9.38098 11.6917C9.55155 11.662 9.63751 11.4688 9.54081 11.3256C8.60064 9.93419 8.06474 8.26041 8.06474 6.4637C8.06474 4.58864 8.65033 2.84056 9.66706 1.40725C9.6993 1.36267 9.72213 1.29377 9.69124 1.24243C9.66438 1.20191 9.61334 1.17894 9.56767 1.16813C9.22384 1.09789 8.87194 1.05871 8.50393 1.05871C5.11931 1.05871 2.46131 4.26172 3.3679 7.82947C3.97902 10.2314 6.19111 11.8268 8.6557 11.762ZM8.89541 13.8817C8.89944 13.9019 8.89138 13.9317 8.85377 13.9533C7.94315 14.4058 4.42824 16.3741 4.87012 20.5241C4.88893 20.7051 4.74656 20.8591 4.56793 20.8335C3.70297 20.7092 1.47744 20.2283 0.787088 18.7301C0.404304 17.9371 0.404304 17.0185 0.787088 16.2255C1.23837 15.2596 2.32629 14.595 3.98233 14.268C4.76536 14.0776 6.87941 13.8074 8.8484 13.8439C8.87795 13.8479 8.89272 13.8695 8.89541 13.8817Z" />
</svg>
