<svg viewBox="0 0 50 38" fill="currentColor" xmlns="http://www.w3.org/2000/svg">
    <path d="M48.9756 0.311523H14.2027C6.35382 0.311523 0 7.29 0 15.9105V36.177C0 36.7851 0.456811 37.2868 1.01052 37.2868H35.7973C43.6323 37.2868 50 30.3084 50 21.6879V1.42139C50 0.813244 49.5432 0.311523 48.9756 0.311523ZM18.3001 27.4045H8.61019V10.1939H18.1894V13.4323H11.6971V17.0964H17.6218V20.2891H11.6971V24.1509H18.3001V27.4045ZM35.7973 27.4045H32.7381V16.245L28.3361 24.2269H27.9623L23.5604 16.2754V27.4045H20.4734V10.1939H23.6573L28.1561 18.3279L32.6135 10.1939H35.7973V27.4045ZM41.3898 27.4045H38.3029V10.1939H41.3898V27.4045Z" />
</svg>
