<svg viewBox="0 0 24 24" fill="none" xmlns="http://www.w3.org/2000/svg">
<g clip-path="url(#clip0)">
<path d="M18.7403 6.58C18.5623 6.58 18.3843 6.518 18.2413 6.39C16.5133 4.849 14.2963 4 11.9993 4C9.7023 4 7.4853 4.849 5.7573 6.39C5.4483 6.664 4.9733 6.64 4.6983 6.329C4.4223 6.02 4.4493 5.545 4.7593 5.27C6.7623 3.484 9.3333 2.5 11.9993 2.5C14.6653 2.5 17.2363 3.484 19.2393 5.27C19.5493 5.546 19.5763 6.02 19.3003 6.329C19.1523 6.495 18.9463 6.58 18.7403 6.58Z" fill="#2196F3"/>
<path d="M19.7511 10.3912C19.5121 10.3912 19.2771 10.2772 19.1321 10.0652C17.5061 7.6972 14.8401 6.2832 12.0001 6.2832C9.16014 6.2832 6.49414 7.6972 4.86814 10.0662C4.63414 10.4062 4.16914 10.4972 3.82514 10.2602C3.48414 10.0262 3.39714 9.5592 3.63214 9.2182C5.53714 6.4402 8.66514 4.7832 12.0001 4.7832C15.3351 4.7832 18.4631 6.4412 20.3681 9.2172C20.6021 9.5582 20.5151 10.0252 20.1751 10.2592C20.0451 10.3492 19.8961 10.3912 19.7511 10.3912Z" fill="#2196F3"/>
<path d="M10.1175 21.4997C9.92747 21.4997 9.73647 21.4277 9.59047 21.2837C9.45847 21.1537 6.35547 18.0537 6.35547 15.0437C6.35547 11.9027 8.88747 9.34766 12.0015 9.34766C15.1155 9.34766 17.6475 11.9027 17.6475 15.0437C17.6475 15.4577 17.3115 15.7937 16.8975 15.7937C16.4835 15.7937 16.1475 15.4577 16.1475 15.0437C16.1475 12.7307 14.2885 10.8477 12.0015 10.8477C9.71447 10.8477 7.85547 12.7297 7.85547 15.0437C7.85547 17.4257 10.6185 20.1897 10.6455 20.2167C10.9395 20.5087 10.9425 20.9827 10.6515 21.2777C10.5045 21.4257 10.3115 21.4997 10.1175 21.4997Z" fill="#2196F3"/>
<path d="M13.8828 21.4999C12.4048 21.4999 8.98075 18.7609 8.64975 15.7099C8.53175 14.6099 8.87075 13.5229 9.57975 12.7289C10.2078 12.0249 11.0608 11.6349 11.9828 11.6299C12.9148 11.6489 13.7368 11.9749 14.3788 12.6139C15.0288 13.2599 15.3868 14.1229 15.3868 15.0429V15.4229C15.3868 16.2679 16.0648 16.9559 16.8968 16.9559C17.7288 16.9559 18.4068 16.2679 18.4068 15.4229V15.2899C18.4068 11.7459 15.7808 8.79692 12.4288 8.57892C10.6398 8.45892 8.94975 9.06992 7.64775 10.2889C6.34275 11.5119 5.59375 13.2449 5.59375 15.0429C5.59375 16.5459 6.11475 18.0099 7.05875 19.1659C7.32075 19.4869 7.27275 19.9589 6.95275 20.2209C6.63175 20.4839 6.15975 20.4349 5.89675 20.1149C4.73475 18.6919 4.09375 16.8899 4.09375 15.0429C4.09375 12.8309 5.01575 10.6989 6.62175 9.19392C8.22975 7.68792 10.3318 6.93792 12.5238 7.08192C16.6628 7.35292 19.9038 10.9579 19.9038 15.2899V15.4229C19.9038 17.0949 18.5528 18.4559 16.8938 18.4559C15.2348 18.4559 13.8838 17.0959 13.8838 15.4229V15.0429C13.8838 14.5249 13.6828 14.0399 13.3188 13.6769C12.9648 13.3239 12.4958 13.1299 11.9988 13.1299C11.9948 13.1299 11.9918 13.1299 11.9888 13.1299C11.3588 13.1329 10.9388 13.4569 10.6968 13.7279C10.2758 14.1999 10.0678 14.8799 10.1398 15.5489C10.3898 17.8439 13.1528 19.9999 13.8828 19.9999C14.2968 19.9999 14.6328 20.3359 14.6328 20.7499C14.6328 21.1639 14.2968 21.4999 13.8828 21.4999Z" fill="#2196F3"/>
<path d="M16.0961 20.3591C13.8801 20.3591 11.2031 17.8181 11.2031 14.6631C11.2031 14.2491 11.5391 13.9131 11.9531 13.9131C12.3671 13.9131 12.7031 14.2491 12.7031 14.6631C12.7031 16.9791 14.7561 18.8591 16.0961 18.8591C16.5101 18.8591 16.8461 19.1951 16.8461 19.6091C16.8461 20.0231 16.5101 20.3591 16.0961 20.3591Z" fill="#2196F3"/>
<path d="M22.9997 8.696C22.4467 8.696 21.9997 8.248 21.9997 7.696V2.956C21.9997 2.429 21.5707 2 21.0447 2H16.3047C15.7517 2 15.3047 1.552 15.3047 1C15.3047 0.448 15.7517 0 16.3047 0H21.0447C22.6747 0 23.9997 1.326 23.9997 2.956V7.696C23.9997 8.248 23.5527 8.696 22.9997 8.696Z" fill="#607D8B" fill-opacity="0.4"/>
<path d="M1 8.696C0.447 8.696 0 8.248 0 7.696V2.956C0 1.326 1.325 0 2.955 0H7.695C8.248 0 8.695 0.448 8.695 1C8.695 1.552 8.248 2 7.695 2H2.955C2.429 2 2 2.429 2 2.956V7.696C2 8.248 1.553 8.696 1 8.696Z" fill="#607D8B" fill-opacity="0.4"/>
<path d="M21.0447 23.9997H16.3047C15.7517 23.9997 15.3047 23.5517 15.3047 22.9997C15.3047 22.4477 15.7517 21.9997 16.3047 21.9997H21.0447C21.5707 21.9997 21.9997 21.5707 21.9997 21.0437V16.3037C21.9997 15.7517 22.4467 15.3037 22.9997 15.3037C23.5527 15.3037 23.9997 15.7517 23.9997 16.3037V21.0437C23.9997 22.6737 22.6747 23.9997 21.0447 23.9997Z" fill="#607D8B" fill-opacity="0.4"/>
<path d="M7.695 23.9997H2.955C1.325 23.9997 0 22.6737 0 21.0437V16.3037C0 15.7517 0.447 15.3037 1 15.3037C1.553 15.3037 2 15.7517 2 16.3037V21.0437C2 21.5707 2.429 21.9997 2.955 21.9997H7.695C8.248 21.9997 8.695 22.4477 8.695 22.9997C8.695 23.5517 8.248 23.9997 7.695 23.9997Z" fill="#607D8B" fill-opacity="0.4"/>
</g>
<defs>
<clipPath id="clip0">
<rect width="24" height="24" fill="white"/>
</clipPath>
</defs>
</svg>
