<svg viewBox="0 0 26 30" fill="currentColor" xmlns="http://www.w3.org/2000/svg">
<path fill-rule="evenodd" clip-rule="evenodd" d="M23.0606 10.1945C23.0606 12.0784 23.5585 13.1888 24.6543 14.4684C25.4846 15.4111 25.75 16.6212 25.75 17.934C25.75 19.2454 25.3192 20.4902 24.456 21.5009C23.326 22.7125 21.7323 23.486 20.1059 23.6205C17.7489 23.8214 15.3905 23.9906 13.0007 23.9906C10.6095 23.9906 8.25257 23.8894 5.89563 23.6205C4.26768 23.486 2.67403 22.7125 1.5455 21.5009C0.68233 20.4902 0.25 19.2454 0.25 17.934C0.25 16.6212 0.516852 15.4111 1.34573 14.4684C2.47575 13.1888 2.94088 12.0784 2.94088 10.1945V9.55545C2.94088 7.03251 3.56999 5.38278 4.86549 3.76779C6.7916 1.41254 9.87903 0 12.9337 0H13.0678C16.1881 0 19.3754 1.48053 21.2687 3.937C22.4971 5.51874 23.0606 7.09898 23.0606 9.55545V10.1945ZM8.61054 27.0913C8.61054 26.3359 9.30376 25.9899 9.9448 25.8419C10.6947 25.6832 15.2639 25.6832 16.0138 25.8419C16.6549 25.9899 17.3481 26.3359 17.3481 27.0913C17.3108 27.8104 16.8889 28.4479 16.306 28.8528C15.5502 29.442 14.6632 29.8151 13.7359 29.9496C13.2231 30.0161 12.7192 30.0176 12.2242 29.9496C11.2955 29.8151 10.4084 29.442 9.65409 28.8513C9.0697 28.4479 8.64781 27.8104 8.61054 27.0913Z" />
</svg>
